<?xml version="1.0" encoding="UTF-8"?>
<svg id="Layer_1" data-name="Layer 1" xmlns="http://www.w3.org/2000/svg" viewBox="0 0 307.64 107.67">
  <defs>
    <style>
      .cls-1 {
        fill: #232e74;
      }

      .cls-1, .cls-2, .cls-3 {
        stroke-width: 0px;
      }

      .cls-2 {
        fill: #232323;
      }

      .cls-3 {
        fill: #fff;
      }
    </style>
  </defs>
  <path class="cls-1" d="m226.85,73.08h0c-3.79,0-6.86-3.07-6.86-6.86V8.28c0-3.79,3.07-6.86,6.86-6.86h0c3.79,0,6.86,3.07,6.86,6.86v57.93c0,3.79-3.07,6.86-6.86,6.86Z"/>
  <path class="cls-2" d="m105.85,74.5c-5.1,0-9.9-.98-14.41-2.94-4.51-1.96-8.45-4.62-11.81-7.99-3.37-3.36-6.03-7.3-7.99-11.81-1.96-4.51-2.94-9.34-2.94-14.51s.98-9.92,2.94-14.46c1.96-4.54,4.62-8.49,7.99-11.86,3.37-3.36,7.3-6.03,11.81-7.99,4.51-1.96,9.31-2.94,14.41-2.94s10,.98,14.51,2.94c4.51,1.96,8.45,4.63,11.81,7.99,3.37,3.37,6.03,7.32,7.99,11.86,1.96,4.54,2.94,9.36,2.94,14.46s-.98,10-2.94,14.51c-1.96,4.51-4.62,8.45-7.99,11.81-3.37,3.37-7.3,6.03-11.81,7.99-4.51,1.96-9.35,2.94-14.51,2.94Zm.05-61.66c-3.26,0-6.31.67-9.15,2.01-2.84,1.34-5.31,3.12-7.43,5.34-2.12,2.22-3.8,4.82-5.04,7.79-1.24,2.97-1.86,6.06-1.86,9.26s.62,6.37,1.86,9.31c1.24,2.94,2.92,5.54,5.04,7.79,2.12,2.25,4.6,4.05,7.43,5.39,2.84,1.34,5.89,2.01,9.15,2.01s6.31-.67,9.14-2.01c2.84-1.34,5.32-3.14,7.44-5.39,2.12-2.26,3.8-4.85,5.04-7.79,1.24-2.94,1.86-6.04,1.86-9.31s-.62-6.29-1.86-9.26c-1.24-2.97-2.92-5.57-5.04-7.79-2.12-2.22-4.6-4-7.44-5.34-2.84-1.34-5.89-2.01-9.14-2.01Z"/>
  <path class="cls-2" d="m55.92,43.99c-.95-2.18-2.19-4.02-3.73-5.5-1.54-1.48-3.28-2.7-5.24-3.65-1.96-.95-3.94-1.71-5.93-2.28-1.99-.57-3.92-1.01-5.78-1.33-1.86-.32-3.48-.63-4.85-.95-1.83-.44-3.72-.88-5.68-1.33-1.96-.44-3.76-.98-5.39-1.61-1.63-.63-2.97-1.42-4.02-2.37-1.05-.95-1.57-2.12-1.57-3.51s.44-2.58,1.32-3.56c.88-.98,1.99-1.79,3.33-2.42,1.34-.63,2.76-1.09,4.26-1.38,1.32-.25,2.67-.45,3.79-.5v.03h20.59c3.38,0,6.13-2.74,6.13-6.13h0c0-3.39-2.74-6.13-6.13-6.13h-18.81c-.32,0-.62-.03-.95-.03-.2,0-.41.03-.62.03h-.2c-2.76.06-5.6.34-8.54.92-3.23.63-6.18,1.73-8.82,3.27-2.65,1.55-4.82,3.67-6.52,6.36-1.7,2.69-2.55,6.06-2.55,10.1,0,2.78.47,5.2,1.42,7.26.94,2.06,2.2,3.83,3.77,5.31,1.57,1.49,3.33,2.72,5.29,3.7,1.96.98,3.95,1.77,5.98,2.37,2.02.6,3.99,1.07,5.88,1.42,1.9.35,3.56.65,5,.9,2.16.38,4.23.79,6.22,1.23s3.73.98,5.2,1.61c1.47.63,2.65,1.44,3.53,2.42.88.98,1.32,2.17,1.32,3.56,0,1.08-.29,2.17-.88,3.27-.59,1.11-1.47,2.09-2.65,2.94-1.18.85-2.61,1.55-4.31,2.09-1.7.54-3.6.74-5.82.74-.52,0-1.29,0-1.61.01H8.01c-3.38,0-6.13,2.74-6.13,6.13h0c0,3.39,2.74,6.13,6.13,6.13h20.22,0c.57.03,1.26.03,1.86.03,4.05,0,7.74-.44,11.08-1.33,3.33-.89,6.21-2.2,8.63-3.94,2.42-1.74,4.28-3.94,5.59-6.59,1.31-2.66,1.96-5.79,1.96-9.39,0-3.1-.47-5.74-1.42-7.92Z"/>
  <path class="cls-1" d="m280.28,2.78c-1.52-2.98-5.74-2.98-7.26,0l-20.57,46.9c6.06-2.54,15.14-2.39,15.14-2.39h.61l6.74-16.78c.76-1.78,2.39-1.78,3.15,0l8.87,22.13h-17.37s-13.01-.45-19.05,4.98c-2.34,2.1-3.88,4.47-4.9,6.76-2.01,4.51,1.37,9.58,6.31,9.58h0c2.72,0,5.16-1.6,6.24-4.09,1.06-2.44,3.54-5.07,9.28-5.07h24.38l1.87,4.64c1.1,2.73,3.75,4.52,6.69,4.52h0c5.2,0,8.69-5.34,6.61-10.1l-26.74-61.07Z"/>
  <g>
    <rect class="cls-2" x="174.6" y="31.26" width="34.04" height="12.65" rx="6.24" ry="6.24"/>
    <path class="cls-2" d="m172.87,1.37v.04c-3.53.08-6.46.62-8.74,1.64-2.48,1.12-4.45,2.65-5.89,4.59-1.45,1.94-2.44,4.18-2.98,6.7-.54,2.52-.81,5.23-.81,8.13v44.43c0,3.45,2.79,6.24,6.24,6.24h2.16c3.45,0,6.24-2.79,6.24-6.24V23.01c0-2.65.48-4.84,1.43-6.58.92-1.67,2.96-2.52,6.07-2.58h25.81c3.45,0,6.24-2.79,6.24-6.24h0c0-3.45-2.79-6.24-6.24-6.24h-29.53Z"/>
  </g>
  <g>
    <rect class="cls-1" x="219.99" y="78.96" width="87.78" height="28.78" rx="3.72" ry="3.72"/>
    <g>
      <path class="cls-3" d="m227.73,102.56v-18.43h9c2.32,0,4.06.44,5.22,1.32s1.75,2.04,1.75,3.47c0,.96-.24,1.8-.71,2.51-.47.71-1.13,1.26-1.96,1.65-.83.39-1.78.58-2.83.58l.5-1.11c1.16,0,2.18.19,3.07.58s1.58.95,2.09,1.68c.51.74.76,1.64.76,2.71,0,1.58-.62,2.81-1.87,3.7-1.25.89-3.08,1.33-5.5,1.33h-9.53Zm4.24-3.21h5c1.09,0,1.92-.18,2.5-.55.58-.37.87-.94.87-1.71s-.29-1.37-.87-1.74c-.58-.37-1.41-.55-2.5-.55h-5.32v-3.11h4.55c1.04,0,1.83-.18,2.38-.54.55-.36.83-.91.83-1.65s-.28-1.28-.83-1.63c-.55-.35-1.35-.52-2.38-.52h-4.24v12Z"/>
      <path class="cls-3" d="m252.1,99.14h10.03v3.42h-14.27v-18.43h13.92v3.42h-9.69v11.58Zm-.32-7.61h8.87v3.34h-8.87v-3.34Z"/>
      <path class="cls-3" d="m269.34,102.56v-14.95h-5.9v-3.47h16.06v3.47h-5.9v14.95h-4.26Z"/>
      <path class="cls-3" d="m279.37,102.56l8.19-18.43h4.21l8.27,18.43h-4.47l-6.76-16.27h1.71l-6.76,16.27h-4.37Zm4.13-3.95l1.08-3.24h9.53l1.11,3.24h-11.71Z"/>
    </g>
  </g>
</svg>